<svg version="1.1" id="Capa_1" xmlns="http://www.w3.org/2000/svg" xmlns:xlink="http://www.w3.org/1999/xlink" x="0px" y="0px"
	 viewBox="0 0 488 322.6" style="enable-background:new 0 0 488 322.6;" xml:space="preserve">
	<path d="M469.8,216.1v-52.4c0-19.9-16-35.9-35.9-35.9l-24.8-3.9l-42.5-64c-0.6-0.5-1.1-1.7-1.7-2.2c-6.6-8.8-17.1-14.9-29.3-14.9
		H255V20.5C255,9.2,246.6,0,236.2,0H18.8C8.4,0,0,9.2,0,20.5v140.1v76v4.9v21c0,11.6,9.4,20.4,20.4,20.4h29.3
		c6.6,23.2,27.6,39.7,53,39.7s46.4-17.1,53-39.7h66.8h113.7c6.6,23.2,27.6,39.7,53,39.7s46.4-17.1,53-39.7h25.4
		c11.6,0,20.4-9.4,20.4-20.4v-25.9C488,226,479.7,217.2,469.8,216.1z M102.7,295c-15.5,0-27.6-12.7-27.6-27.6s12.7-27.6,27.6-27.6
		c15.5,0,27.6,12.7,27.6,27.6S118.2,295,102.7,295z M292.8,126c-1.4,0-2.6-1.1-2.6-2.6V72.7c0-1.4,1.1-2.6,2.6-2.6h43.8
		c0.9,0,1.7,0.4,2.1,1.1l34.1,50.7c1.1,1.7-0.1,4-2.1,4h-77.9V126z M389.2,295c-15.5,0-27.6-12.7-27.6-27.6s12.7-27.6,27.6-27.6
		c15.5,0,27.6,12.7,27.6,27.6C416.8,282.3,404.1,295,389.2,295z"/>
</svg>
